<?xml version="1.0" encoding="utf-8"?>
<!-- Generator: Adobe Illustrator 16.0.0, SVG Export Plug-In . SVG Version: 6.00 Build 0)  -->
<!DOCTYPE svg PUBLIC "-//W3C//DTD SVG 1.1//EN" "http://www.w3.org/Graphics/SVG/1.1/DTD/svg11.dtd">
<svg version="1.1" id="Layer_1" xmlns:sketch="http://www.bohemiancoding.com/sketch/ns"
	 xmlns="http://www.w3.org/2000/svg" xmlns:xlink="http://www.w3.org/1999/xlink" x="0px" y="0px" width="117px" height="29px"
	 viewBox="0 0 117 29" enable-background="new 0 0 117 29" xml:space="preserve">
<title>pp-bt-logo-white</title>
<desc>Created with Sketch.</desc>
<g id="Page-1" sketch:type="MSPage">
	<g id="Desktop-HD" transform="translate(-164.000000, -32.000000)" sketch:type="MSArtboardGroup">
		<g id="header" transform="translate(164.000000, 30.000000)" sketch:type="MSLayerGroup">
			<g id="pp-bt-logo-white" transform="translate(0.500000, 2.000000)" sketch:type="MSShapeGroup">
				<path id="Fill-1" d="M3.797,13.471h2.702c2.086,0,3.129-0.679,3.129-1.988c0-1.286-1.114-1.987-3.295-1.987H3.797V13.471
					L3.797,13.471L3.797,13.471z M3.797,3.883v3.695h2.37c1.778,0,2.702-0.655,2.702-1.848c0-1.216-0.948-1.848-2.726-1.848
					L3.797,3.883L3.797,3.883L3.797,3.883z M0.029,15.458v-1.987h1.588V3.883H0.029V1.895h6.352c2.915,0,4.692,1.333,4.692,3.648
					c0,1.52-0.9,2.455-2.038,2.899c1.635,0.445,2.797,1.59,2.797,3.157c0,2.479-1.944,3.858-5.12,3.858L0.029,15.458L0.029,15.458z
					 M23.352,8.396c-0.237-0.795-0.83-1.263-1.611-1.263c-1.825,0-3.555,1.333-3.555,3.765v2.573h3.507v1.987h-7.822v-1.987h2.228
					V7.484h-1.753V5.496h3.815V7.18c0.64-1.169,1.944-2.011,3.674-2.011c1.944,0,3.152,1.099,3.508,2.666L23.352,8.396z
					 M34.018,11.436c-0.663-0.234-1.659-0.421-2.583-0.421c-1.327,0-2.607,0.421-2.607,1.614c0,0.889,0.806,1.31,1.919,1.31
					c1.541,0,3.271-0.818,3.271-2.222L34.018,11.436L34.018,11.436z M34.018,9.659V9.097c0-1.403-1.138-1.988-2.37-1.988
					c-1.161,0-2.157,0.468-2.963,1.192L27.31,6.829c0.948-0.866,2.299-1.66,4.337-1.66c2.536,0,4.503,1.333,4.503,3.858v4.444h1.47
					v1.987h-3.603v-1.053c-0.545,0.866-2.015,1.38-3.46,1.38c-2.086,0-3.888-1.052-3.888-3.133c0-2.456,2.442-3.391,4.669-3.391
					C32.43,9.261,33.33,9.471,34.018,9.659z M44.044,0.468h2.346v3.04h-2.346V0.468z M50.277,13.471v1.987H40.086v-1.987h4.219
					V7.484h-3.224V5.496h5.309v7.974L50.277,13.471L50.277,13.471z M52.791,13.471h1.541V7.484h-1.446V5.496h3.508v1.286
					c0.617-0.982,1.896-1.613,3.46-1.613c2.252,0,3.863,1.403,3.863,3.671v4.63h1.541v1.987H60.02V13.47h1.611V9.401
					c0-1.73-1.066-2.221-2.038-2.221c-1.588,0-3.176,1.169-3.176,2.97v3.321h1.612v1.987h-5.238V13.471L52.791,13.471z
					 M68.125,7.483h-2.631V5.496h2.631V1.895h2.086v3.602h4.906v1.987h-4.906v4.186c0,1.543,1.092,2.175,2.348,2.175
					c1.185,0,2.18-0.655,2.915-1.38l1.398,1.427c-0.925,0.982-2.347,1.894-4.313,1.894c-2.535,0-4.433-1.38-4.433-4.045
					L68.125,7.483L68.125,7.483z M88.248,8.396c-0.236-0.795-0.829-1.263-1.611-1.263c-1.824,0-3.555,1.333-3.555,3.765v2.573h3.508
					v1.987h-7.821v-1.987h2.228V7.484h-1.754V5.496h3.815V7.18c0.64-1.169,1.944-2.011,3.674-2.011c1.943,0,3.152,1.099,3.508,2.666
					L88.248,8.396z M93.867,9.448h6.209c-0.309-1.427-1.588-2.386-3.01-2.386C95.455,7.063,94.223,8.045,93.867,9.448z
					 M102.28,13.938c-1.042,1.076-2.892,1.848-4.953,1.848c-3.389,0-5.759-2.245-5.759-5.308c0-3.063,2.299-5.309,5.498-5.309
					c3.176,0,5.404,2.409,5.404,5.682v0.351h-8.699c0.355,1.66,1.754,2.666,3.58,2.666c1.516,0,2.819-0.607,3.531-1.379
					L102.28,13.938z M106.832,9.448h6.209c-0.308-1.427-1.588-2.386-3.01-2.386C108.42,7.063,107.188,8.045,106.832,9.448z
					 M115.246,13.938c-1.043,1.076-2.893,1.848-4.953,1.848c-3.39,0-5.76-2.245-5.76-5.308c0-3.063,2.299-5.309,5.498-5.309
					c3.176,0,5.404,2.409,5.404,5.682v0.351h-8.699c0.356,1.66,1.754,2.666,3.58,2.666c1.516,0,2.82-0.607,3.531-1.379
					L115.246,13.938L115.246,13.938z"/>
				<path id="Shape" d="M75.685,19.204h-2.726c-0.187,0-0.345,0.135-0.373,0.317l-1.102,6.934c-0.021,0.137,0.085,0.261,0.224,0.261
					h1.399c0.13,0,0.241-0.094,0.262-0.222l0.313-1.966c0.029-0.183,0.188-0.317,0.373-0.317h0.862c1.795,0,2.831-0.861,3.102-2.57
					c0.122-0.748,0.005-1.335-0.348-1.745C77.283,19.443,76.596,19.204,75.685,19.204L75.685,19.204z M75.999,21.736
					c-0.149,0.971-0.896,0.971-1.618,0.971H73.97l0.288-1.813c0.018-0.109,0.113-0.189,0.225-0.189h0.189
					c0.49,0,0.956,0,1.195,0.277C76.01,21.149,76.053,21.396,75.999,21.736z M56.248,19.204h-2.725
					c-0.187,0-0.345,0.135-0.374,0.317l-1.103,6.934c-0.021,0.137,0.084,0.261,0.225,0.261h1.301c0.187,0,0.345-0.135,0.374-0.317
					l0.297-1.871c0.03-0.182,0.188-0.316,0.374-0.316h0.862c1.795,0,2.831-0.861,3.102-2.57c0.122-0.748,0.005-1.336-0.347-1.746
					C57.846,19.443,57.16,19.204,56.248,19.204z M56.563,21.736c-0.149,0.971-0.896,0.971-1.619,0.971h-0.411l0.289-1.813
					c0.017-0.109,0.113-0.189,0.224-0.189h0.189c0.492,0,0.957,0,1.196,0.277C56.573,21.149,56.617,21.396,56.563,21.736z
					 M64.393,21.705h-1.305c-0.111,0-0.207,0.082-0.225,0.191l-0.057,0.362l-0.092-0.132c-0.282-0.407-0.912-0.544-1.541-0.544
					c-1.441,0-2.673,1.085-2.913,2.605c-0.125,0.758,0.053,1.483,0.486,1.988c0.399,0.466,0.966,0.659,1.644,0.659
					c1.162,0,1.807-0.74,1.807-0.74l-0.059,0.359c-0.021,0.137,0.086,0.261,0.225,0.261h1.174c0.188,0,0.346-0.135,0.375-0.317
					l0.705-4.432C64.639,21.828,64.533,21.705,64.393,21.705z M62.574,24.226c-0.126,0.739-0.718,1.236-1.473,1.236
					c-0.379,0-0.682-0.12-0.877-0.349c-0.193-0.227-0.266-0.55-0.204-0.91c0.118-0.732,0.718-1.245,1.462-1.245
					c0.371,0,0.672,0.122,0.87,0.353C62.553,23.543,62.632,23.867,62.574,24.226z M83.83,21.705h-1.305
					c-0.113,0-0.207,0.082-0.225,0.191l-0.058,0.362l-0.091-0.132c-0.283-0.407-0.912-0.544-1.541-0.544
					c-1.441,0-2.674,1.085-2.914,2.605c-0.123,0.758,0.053,1.483,0.486,1.988c0.398,0.466,0.966,0.659,1.644,0.659
					c1.161,0,1.808-0.74,1.808-0.74l-0.059,0.359c-0.022,0.137,0.084,0.261,0.224,0.261h1.175c0.187,0,0.346-0.135,0.374-0.317
					l0.706-4.432C84.076,21.828,83.97,21.705,83.83,21.705z M82.012,24.226c-0.125,0.739-0.718,1.236-1.473,1.236
					c-0.379,0-0.682-0.12-0.877-0.349c-0.193-0.227-0.266-0.55-0.205-0.91c0.117-0.732,0.719-1.245,1.463-1.245
					c0.371,0,0.672,0.122,0.87,0.353C81.99,23.543,82.068,23.867,82.012,24.226z M71.344,21.705h-1.313
					c-0.125,0-0.242,0.063-0.313,0.166l-1.81,2.644l-0.767-2.541c-0.048-0.159-0.194-0.269-0.362-0.269h-1.29
					c-0.155,0-0.265,0.152-0.216,0.299l1.445,4.207l-1.358,1.9c-0.106,0.15,0.001,0.356,0.185,0.356h1.311
					c0.125,0,0.241-0.061,0.312-0.161l4.362-6.247C71.635,21.91,71.527,21.705,71.344,21.705z M85.368,19.395l-1.118,7.061
					c-0.021,0.137,0.085,0.261,0.225,0.261h1.124c0.187,0,0.345-0.135,0.374-0.317l1.102-6.934c0.022-0.137-0.085-0.261-0.224-0.261
					h-1.259C85.48,19.204,85.386,19.285,85.368,19.395z M45.831,25.3L45,26.711H44.39l3.141-5.206l1.421,5.206h-0.617L47.968,25.3
					H45.831z M47.312,22.796l-1.176,1.99h1.693L47.312,22.796z M93.928,22.839c-0.33-0.405-0.837-0.654-1.412-0.654
					c-1.109,0-2.159,0.956-2.33,2.044c-0.178,1.087,0.574,2.043,1.689,2.043c0.562,0,1.156-0.262,1.61-0.654l-0.105,0.682
					c-0.481,0.307-1.036,0.483-1.563,0.483c-1.406,0-2.418-1.133-2.193-2.535c0.225-1.415,1.578-2.574,3.004-2.574
					c0.555,0,1.023,0.157,1.413,0.485L93.928,22.839z M93.955,25.164c0.144-0.904,0.983-1.631,1.894-1.631
					c0.911,0,1.512,0.727,1.366,1.631c-0.145,0.904-0.982,1.617-1.888,1.617C94.423,26.781,93.809,26.068,93.955,25.164z
					 M94.482,25.158c-0.099,0.628,0.271,1.139,0.924,1.139c0.654,0,1.183-0.511,1.281-1.139c0.1-0.623-0.264-1.14-0.917-1.14
					S94.582,24.535,94.482,25.158z M98.398,23.952h0.013c0.212-0.255,0.503-0.419,0.819-0.419c0.363,0,0.66,0.189,0.772,0.512
					c0.237-0.342,0.64-0.512,1.016-0.512c0.793,0,0.886,0.642,0.779,1.289l-0.296,1.875h-0.528l0.284-1.789
					c0.064-0.398,0.118-0.891-0.423-0.891c-0.606,0-0.767,0.583-0.845,1.049l-0.258,1.631h-0.528l0.278-1.748
					c0.059-0.381,0.105-0.932-0.402-0.932c-0.621,0-0.786,0.623-0.865,1.088l-0.251,1.592h-0.527l0.488-3.08h0.527L98.398,23.952z
					 M103.033,24.057h0.013c0.31-0.34,0.726-0.523,1.155-0.523c0.911,0,1.359,0.779,1.221,1.631
					c-0.139,0.879-0.818,1.618-1.75,1.618c-0.422,0-0.785-0.183-0.983-0.517h-0.013l-0.344,2.161h-0.527l0.766-4.809h0.527
					L103.033,24.057z M102.836,25.126c-0.1,0.602,0.171,1.171,0.83,1.171c0.681,0,1.123-0.543,1.223-1.165
					c0.098-0.616-0.211-1.113-0.865-1.113C103.41,24.018,102.928,24.549,102.836,25.126z M108.619,26.697h-0.529l0.066-0.426h-0.013
					c-0.324,0.341-0.714,0.51-1.149,0.51c-0.911,0-1.367-0.765-1.229-1.617c0.14-0.879,0.826-1.631,1.758-1.631
					c0.422,0,0.771,0.197,0.977,0.523h0.014l0.064-0.439h0.529L108.619,26.697z M106.315,25.126c-0.1,0.602,0.171,1.171,0.831,1.171
					c0.681,0,1.122-0.543,1.223-1.165c0.098-0.616-0.213-1.113-0.866-1.113C106.889,24.018,106.407,24.549,106.315,25.126z
					 M110.131,23.991h0.014c0.27-0.294,0.58-0.458,0.963-0.458c0.859,0,0.958,0.616,0.838,1.336l-0.291,1.828h-0.527l0.277-1.736
					c0.079-0.498,0.112-0.943-0.502-0.943c-0.726,0-0.877,0.668-0.97,1.218l-0.231,1.462h-0.527l0.488-3.08h0.527L110.131,23.991z
					 M112.369,23.617h0.613l0.747,2.207l1.353-2.207h0.602l-3.057,4.809h-0.602l1.327-2.018L112.369,23.617z"/>
			</g>
		</g>
	</g>
</g>
</svg>
