<?xml version="1.0" standalone="no"?>
<!DOCTYPE svg PUBLIC "-//W3C//DTD SVG 20010904//EN"
 "http://www.w3.org/TR/2001/REC-SVG-20010904/DTD/svg10.dtd">
<svg version="1.0" xmlns="http://www.w3.org/2000/svg"
 width="144.000000pt" height="144.000000pt" viewBox="0 0 144.000000 144.000000"
 preserveAspectRatio="xMidYMid meet">
<metadata>
Created by potrace 1.11, written by Peter Selinger 2001-2013
</metadata>
<g transform="translate(0.000000,144.000000) scale(0.100000,-0.100000)"
fill="#000000" stroke="none">
<path d="M0 720 l0 -720 720 0 720 0 0 720 0 720 -720 0 -720 0 0 -720z m900
-110 c0 -82 -3 -150 -7 -150 -5 0 -23 9 -40 20 l-33 20 0 -40 0 -41 30 16 c99
51 203 -30 204 -159 1 -123 -73 -210 -179 -210 -31 0 -62 6 -77 16 -23 15 -27
15 -54 -3 -16 -10 -32 -19 -36 -19 -5 0 -8 108 -8 239 0 132 -3 246 -6 255 -3
9 -12 16 -20 16 -12 0 -40 38 -32 44 13 11 245 145 251 146 4 0 7 -67 7 -150z
m344 8 c13 -27 16 -29 16 -11 0 12 -6 24 -12 26 -10 4 -10 6 -1 6 15 1 43 -38
43 -61 0 -16 -6 -17 -42 -13 -35 4 -39 4 -20 -5 13 -5 43 -12 68 -14 71 -7 86
-27 33 -45 -43 -15 -51 -12 -14 4 l30 14 -45 0 c-25 0 -39 -3 -32 -6 6 -2 12
-11 12 -19 0 -11 -16 -14 -69 -14 -69 0 -130 19 -176 53 -18 14 -16 16 33 33
29 11 55 26 58 36 9 31 34 48 68 48 28 0 36 -6 50 -32z m-954 -193 c0 -8 -7
-15 -15 -15 -8 0 -15 -2 -15 -5 0 -9 53 -140 59 -148 4 -4 17 20 29 54 l22 60
-25 25 c-14 14 -25 29 -25 34 0 6 41 10 95 10 78 0 95 -3 95 -15 0 -8 -7 -15
-15 -15 -8 0 -15 -4 -15 -9 0 -13 52 -152 55 -149 2 2 13 28 24 58 25 65 27
100 6 100 -8 0 -15 7 -15 15 0 12 13 15 60 15 44 0 60 -4 60 -14 0 -7 -8 -16
-18 -18 -13 -4 -31 -40 -62 -124 -24 -66 -52 -143 -62 -171 -11 -29 -26 -53
-33 -53 -13 0 -22 20 -76 168 -12 31 -25 61 -29 65 -7 8 -24 -31 -77 -178 -11
-29 -25 -50 -33 -50 -10 0 -34 52 -73 155 -33 89 -69 166 -83 181 -13 14 -24
28 -24 32 0 4 43 7 95 7 78 0 95 -3 95 -15z m980 -151 c0 -157 1 -166 20 -171
11 -3 20 -12 20 -19 0 -11 -22 -14 -100 -14 -78 0 -100 3 -100 14 0 7 9 16 20
19 19 5 20 14 20 152 0 138 -1 147 -20 152 -11 3 -20 12 -20 19 0 11 19 14 80
14 l80 0 0 -166z"/>
<path d="M838 379 c-16 -9 -18 -26 -18 -129 0 -94 3 -122 16 -134 23 -24 51
-19 71 11 22 33 25 205 5 241 -14 23 -45 28 -74 11z"/>
<path d="M1064 525 c10 -8 24 -11 29 -8 6 4 2 10 -9 14 -31 12 -40 9 -20 -6z"/>
</g>
</svg>
